<?xml version="1.0" standalone="no"?>
<!DOCTYPE svg PUBLIC "-//W3C//DTD SVG 20010904//EN"
 "http://www.w3.org/TR/2001/REC-SVG-20010904/DTD/svg10.dtd">
<svg version="1.0" xmlns="http://www.w3.org/2000/svg"
 width="148.000000pt" height="145.000000pt" viewBox="0 0 148.000000 145.000000"
 preserveAspectRatio="xMidYMid meet">

<g transform="translate(0.000000,145.000000) scale(0.100000,-0.100000)"
 stroke="none">
<path d="M546 1440 c-84 -26 -142 -140 -162 -318 -4 -35 -12 -65 -18 -66 -6
-2 -49 -10 -96 -19 -109 -21 -202 -67 -235 -115 -29 -42 -33 -107 -10 -151 20
-40 102 -111 166 -144 30 -15 43 -20 29 -10 -47 33 -142 128 -156 155 -53 101
43 183 243 206 l71 8 6 -50 c21 -184 21 -174 -11 -214 -85 -106 -166 -273
-182 -372 -18 -111 12 -181 93 -214 42 -18 53 -19 117 -8 338 58 829 589 885
957 16 110 -25 191 -110 215 -36 10 -54 9 -105 -4 -63 -16 -126 -44 -173 -77
-14 -11 -31 -19 -36 -19 -6 0 -25 24 -42 54 -79 140 -187 212 -274 186z m130
-76 c41 -23 84 -66 138 -137 24 -31 26 -40 16 -52 -11 -13 -10 -14 5 -9 10 4
21 1 27 -7 8 -11 9 -10 4 4 -5 15 8 25 69 53 136 63 224 66 271 11 25 -29 26
-37 21 -102 -6 -87 -53 -209 -77 -201 -8 2 -67 23 -130 45 l-115 39 -22 51
-23 51 -130 0 -130 0 -6 -25 c-6 -23 -10 -25 -71 -25 l-66 0 5 88 c8 129 50
225 108 245 22 8 60 -3 106 -29z m34 -400 c156 -24 410 -95 410 -115 0 -11
-74 -129 -81 -129 -4 0 -21 34 -39 75 l-33 74 -106 25 c-58 14 -142 30 -186
36 -153 21 -144 21 -151 -6 -13 -49 18 -224 67 -386 l21 -68 106 0 107 -1 -40
-35 c-22 -19 -65 -55 -96 -79 l-57 -44 -30 67 c-63 141 -123 376 -138 536 l-7
78 79 -7 c43 -4 122 -13 174 -21z m58 -207 c17 -45 32 -86 32 -90 0 -4 -32 -7
-71 -7 -53 0 -70 3 -66 13 2 6 17 47 33 90 16 42 31 77 34 77 3 0 20 -37 38
-83z m-348 -53 c0 -9 -34 -92 -75 -186 -41 -94 -75 -175 -75 -180 0 -5 58 -8
137 -7 133 1 136 1 149 -22 7 -13 13 -28 14 -32 0 -15 -146 -78 -196 -83 -67
-8 -101 7 -120 53 -34 80 17 252 132 450 19 32 34 35 34 7z"/>
<path d="M1241 833 c-7 -14 -8 -29 -4 -32 4 -4 35 -24 67 -46 72 -48 116 -105
116 -151 0 -63 -79 -125 -204 -157 l-58 -15 -29 65 c-16 36 -29 69 -29 74 0
19 -19 7 -46 -29 -15 -20 -54 -65 -86 -98 -55 -58 -58 -63 -47 -88 l12 -26
134 0 c73 0 133 2 133 5 0 4 -7 20 -16 36 -21 41 -12 59 30 59 18 0 63 9 99
20 211 65 208 241 -7 384 -48 32 -50 32 -65 -1z"/>
<path d="M668 189 c-10 -5 -18 -16 -18 -23 0 -17 107 -119 145 -138 93 -48
172 -19 216 77 29 62 22 85 -7 26 -63 -125 -168 -118 -272 19 -41 54 -40 53
-64 39z"/>
</g>
</svg>
