<?xml version="1.0" standalone="no"?>
<!DOCTYPE svg PUBLIC "-//W3C//DTD SVG 20010904//EN"
 "http://www.w3.org/TR/2001/REC-SVG-20010904/DTD/svg10.dtd">
<svg version="1.0" xmlns="http://www.w3.org/2000/svg"
 width="154.000000pt" height="76.000000pt" viewBox="0 0 154.000000 76.000000"
 preserveAspectRatio="xMidYMid meet">

<g transform="translate(0.000000,76.000000) scale(0.100000,-0.100000)"
stroke="none">
<path d="M373 749 c-18 -18 -16 -46 3 -53 9 -3 40 -6 69 -6 60 0 82 -19 64
-53 -9 -15 -28 -17 -144 -17 -146 0 -165 -3 -165 -30 0 -32 25 -39 136 -42
l109 -3 3 -27 c4 -33 -8 -37 -118 -40 -73 -3 -75 -4 -75 -28 0 -22 5 -25 40
-28 46 -4 65 -17 65 -43 0 -28 -31 -39 -109 -39 -73 0 -86 -7 -76 -40 6 -18
15 -20 98 -20 103 0 120 -7 115 -41 -3 -24 -4 -24 -147 -29 -118 -4 -146 -8
-154 -21 -6 -9 -7 -24 -4 -33 5 -13 24 -16 115 -16 88 0 112 -3 123 -16 9 -11
10 -20 2 -32 -8 -13 -28 -18 -89 -20 -97 -4 -124 -21 -88 -56 13 -14 47 -16
213 -16 147 0 201 3 209 13 6 6 27 100 46 207 20 107 43 209 51 227 29 66 129
84 168 31 l21 -28 -41 -217 c-23 -120 -39 -221 -36 -225 2 -5 54 -8 114 -8
104 0 110 1 119 23 5 12 26 110 45 217 20 107 41 202 46 211 29 55 115 77 159
41 30 -25 29 -54 -14 -280 -20 -106 -34 -197 -31 -203 8 -12 222 -12 230 0 3
5 24 105 46 223 45 235 47 304 11 374 -77 151 -252 192 -430 102 l-62 -31 -23
21 c-54 51 -85 56 -352 60 -192 3 -253 0 -262 -9z"/>
<path d="M114 465 c-12 -29 4 -45 45 -45 42 0 61 21 40 46 -16 19 -78 18 -85
-1z"/>
<path d="M23 63 c-17 -6 -16 -38 1 -53 19 -15 56 -9 69 12 21 32 -26 59 -70
41z"/>
</g>
</svg>
