<?xml version="1.0" encoding="utf-8"?>
<!-- Generator: Adobe Illustrator 24.1.2, SVG Export Plug-In . SVG Version: 6.00 Build 0)  -->
<svg version="1.1" id="Layer_1" xmlns="http://www.w3.org/2000/svg" xmlns:xlink="http://www.w3.org/1999/xlink" x="0px" y="0px"
	 viewBox="0 0 226.7 143.7" style="enable-background:new 0 0 226.7 143.7;" xml:space="preserve">
<path d="M226.7,141.7c-12.5,0-24.5,0.1-36.4-0.2c-1.6,0-3.7-2-4.6-3.6c-10.7-19-21.2-38.1-31.8-57.1c-2.1-3.7-4-7.8-9.4-8.6
	c-0.1,1.4-0.4,2.6-0.4,3.9c0,12.2,0.2,24.3-0.1,36.5c-0.3,11.7,2.6,21.7,14.1,28.8c-19.8,0-38.4,0-57.8,0c1.4-1.1,2.2-1.8,3-2.4
	c7-5.3,10.6-12.4,10.6-21.1c0.1-30.6,0.1-61.3,0-92c0-10.1-4.8-17.7-14.4-24c3,0,4.6,0,6.2,0c20.5,0,41,0,61.5,0
	c8.8,0,17.2,2,24.8,6.6c12.9,7.8,19.3,21.3,17,36.1c-1.8,11.2-8.8,18.4-18.8,23c-3,1.4-6.2,2.4-10.1,3.8
	C195.6,94.7,207,120.4,226.7,141.7z M144.3,70.2c4.7,0,9,0.3,13.3-0.1c9.9-0.8,16.3-6.5,19-15.8c3.5-12.2,2.4-24.1-4.4-35
	C165.8,9,154.9,3.6,144.3,5.4C144.3,26.6,144.3,47.8,144.3,70.2z"/>
<path d="M2.8,143c0-18.1,0-35.4,0-52.7C3,90.2,3.3,90.1,3.5,90c1.4,3,2.9,6.1,4.3,9.1c5.1,10.8,10.9,21.1,19.5,29.4
	c9.8,9.4,21.2,14.3,35,11.4c9.2-2,14.8-7.7,16.9-16.9c2.1-9,0.1-17.2-7.9-21.9c-9.2-5.5-19.3-9.6-29.1-14.1
	c-7.2-3.3-14.9-5.9-21.9-9.7C4.8,69.1-1.4,55.6,0.3,38.3C2,20.5,11.9,9,28.5,3c11-4,22.3-3.2,33.6-2c8.9,1,17.8,1.6,27.4,2.5
	c0.8,14,1.6,29,2.4,43.9c-0.3,0.1-0.5,0.3-0.8,0.4c-0.8-1.5-1.6-3-2.5-4.4c-6.2-9.2-11.9-19-19-27.5C61.2,6,50.2,0.8,36.6,3.8
	C26.5,6.1,19.9,13,18.2,23.1c-1.6,9.7,1.7,17.1,11.4,22.3c8.9,4.7,18.5,8.2,27.8,12.4c7.1,3.2,14.4,6.1,21.2,10
	c15.5,8.9,21.3,22.8,18.9,40.2c-2.4,18-13,29-30.2,34c-11.3,3.2-22.5,1.6-33.6-0.5C23.5,139.6,13.3,138,2.8,143z"/>
</svg>
